/* XPM */
static char *_602043308524ac498da3d208946896bALrytgnSY4h0Xh2U[] = {
/* columns rows colors chars-per-pixel */
"40 40 134 2 ",
"   c None",
".  c #3D242F",
"X  c #21263F",
"o  c #3F2631",
"O  c #402732",
"+  c #422A35",
"@  c #4B353F",
"#  c #6B3E3A",
"$  c #743934",
"%  c #78403C",
"&  c #7F493D",
"*  c #222740",
"=  c #242942",
"-  c #7B4644",
";  c #7C4845",
":  c #784F4C",
">  c #66515E",
",  c #68525F",
"<  c #6E585F",
"1  c #765150",
"2  c #4E4F67",
"3  c #4F546D",
"4  c #5E5A6F",
"5  c #595A70",
"6  c #6B5764",
"7  c #6C5A63",
"8  c #605669",
"9  c #6E5B69",
"0  c #5C6078",
"q  c #656173",
"w  c #6F697C",
"e  c #716575",
"r  c #814339",
"t  c #80493D",
"y  c #90513F",
"u  c #864C45",
"i  c #8A4F45",
"p  c #905241",
"a  c #995741",
"s  c #995842",
"d  c #B56647",
"f  c #BF6B47",
"g  c #B76748",
"h  c #B86748",
"j  c #B7694B",
"k  c #BE6C4A",
"l  c #BF704F",
"z  c #BE7254",
"x  c #8E6A66",
"c  c #8F6B68",
"v  c #916F6C",
"b  c #8A737C",
"n  c #937270",
"m  c #9A7773",
"M  c #AF7764",
"N  c #AC7C6E",
"B  c #B07866",
"V  c #B27A68",
"C  c #AF7E70",
"Z  c #C06B47",
"A  c #C06C48",
"S  c #C4754F",
"D  c #C37651",
"F  c #B9806D",
"G  c #BD8572",
"H  c #BE8C7B",
"J  c #D9915F",
"K  c #D99160",
"L  c #E5A169",
"P  c #E9A66C",
"I  c #586887",
"U  c #566888",
"Y  c #5B6B8A",
"T  c #61708F",
"R  c #707083",
"E  c #72798E",
"W  c #697A98",
"Q  c #757D92",
"!  c #788095",
"~  c #9B838A",
"^  c #9D898C",
"/  c #828A9E",
"(  c #8B8999",
")  c #998D94",
"_  c #918F9E",
"`  c #91909F",
"'  c #A59192",
"]  c #A3939A",
"[  c #A9979C",
"{  c #B79E9C",
"}  c #9294A6",
"|  c #9B96A2",
" . c #9A9AA7",
".. c #9B9CAB",
"X. c #8A9BB4",
"o. c #A89AA2",
"O. c #93A1B7",
"+. c #9AA3B6",
"@. c #92A2BA",
"#. c #9AA6BC",
"$. c #9AA8BE",
"%. c #ABA1AB",
"&. c #B6A2A3",
"*. c #BFA5A2",
"=. c #BDABA5",
"-. c #B6A9AE",
";. c #BDACAC",
":. c #AFAAB6",
">. c #A2ACBE",
",. c #ABAFBF",
"<. c #BFB5BB",
"1. c #C1998E",
"2. c #CBB8AF",
"3. c #C0B2B5",
"4. c #C7BBB7",
"5. c #CFBDB2",
"6. c #D0BEB3",
"7. c #CCC0BB",
"8. c #A1AEC4",
"9. c #A3B1C6",
"0. c #A4B3C8",
"q. c #A9B5C9",
"w. c #ADBACE",
"e. c #B4B4C3",
"r. c #BFB9C2",
"t. c #B7BAC8",
"y. c #BFBEC8",
"u. c #BFC1CC",
"i. c #BAC3D2",
"p. c #BFC8D7",
"a. c #BAC6D9",
"s. c #BFCBDD",
"d. c #C1CCDD",
"f. c #C2CEE0",
/* pixels */
"                                                                                ",
"                                                                                ",
"                                                                                ",
"                                                                                ",
"                                                                                ",
"                                                                                ",
"      o o o o o o o o o o o o o O o o o o o o o o o o O o o o o o o o o o       ",
"      o o o O o o o o o + o o o o o O o O o o O O o o o O o o O o O o o o       ",
"+ o o o . o o o o o o o o o o o o o o o o o o o o o O O o o O o o o o o o o o o ",
"O o o o o o o o . . . . o o o o o o o . o o o o o o . . . . . . o o o o o o o o ",
"O o o . O # t : q q q q 7 & t - & & & & & & t & & & & 7 q q q q 1 t # O o o o o ",
"O o o o O p A B X.X.X.X.) k k k k k k k k k k k k k k ^ X.X.X.X.V A s O o o o o ",
"O o o o o p A V O.@.O.@.] D D D S S S S S S S S S S S ' @.@.@.O.C k a O o o o o ",
"O o o o o p A G i.a.a.a.4.L L L L L L L L L L L L L L 5.s.a.a.a.H Z a O o o o o ",
"O o o o o p A G d.d.p.s.7.P P P P P P P P P P P L P P 5.s.d.s.s.H A a O o o o o ",
"O o o o o p A G p.d.d.s.7.P P P P P P P P P P P P P P 5.s.s.d.p.H f a O o o o o ",
"O O o o O p Z G u.d.d.d.7.P P P P P P P P P P P P P P 5.d.d.d.p.H Z s O O o o o ",
"O o o . O p A G p.u.d.d.7.P P P P P P P P P P P P P P 5.p.d.s.p.H Z s O . O o O ",
"O o o o o p A G p.p.d.d.7.P P P P P P P P P P P P P P 5.s.s.d.s.H Z s O . O . o ",
"O o O . o p Z G p.d.d.d.d.P P P P P P P P P P P P P P 5.s.d.s.p.H Z s O . O o o ",
"O o O o O p A G p.d.p.s.7.P P P P P P P P P P P P P P 5.s.s.d.p.H k a O o o o o ",
"o o o o O p A G p.d.s.d.7.P P P P P P P P P P P P P P 5.d.d.d.s.H k s O o o o o ",
"O o o o O p A V w.w.w.w.-.K K K J J J J J J J J K K K =.w.w.w.w.G k a O o o o o ",
"o o o o + p A M X.X.X.X.) k k k k k k k k k k k k k k ^ X.X.X.X.N A a o o o o o ",
"O o o o o p A B } X.X.X.) j k z z z z D z z z D z k k ^ X.X.X.X.N Z a O . O o o ",
"O o o o o p A B X.X.X.X.) k l *.r.r.r.r.r.r.r.r.;.z k ^ X.X.X.X.N f s O o o o O ",
"O o o o O p Z M X.X.X.X.) k z 4.f.f.f.f.f.f.d.d.r.z k ^ X.X.X.X.N f a O . O . o ",
"O o o o o v 1.{ 0.8.8.8...c v ,.f.8.! ! Q Q >.d.t.n x | 0.9.8.8.&.1.m o o o o o ",
"O o o o o _ f.d.d.d.d.d.8.Y Y 0.d./ = = = X Q d.w.T U $.s.d.s.d.d.f...+ o o o o ",
"O o o o o _ f.d.d.d.d.d.8.Y Y q.f./ = = = = Q d.w.T U $.s.s.d.s.d.d...+ o o o o ",
"O o o o O _ d.d.d.d.d.d.8.I T q.d./ = = = = Q d.w.T I $.d.d.d.p.d.d...+ o o o o ",
"O o o o o _ f.d.d.d.d.d.8.Y Y q.f./ = = = X Q d.w.T I $.f.d.d.d.d.f...o o o o o ",
"O o o o o R X.} ~ ~ ~ ~ b , 6 e.f.>.E E E E +.d.e.9 > b ~ ~ ~ ~ } X.E O o o o o ",
"O o o o o 2 U 5 $ $ $ $ $ $ $ :.f.f.d.f.d.f.d.f.e.- $ $ $ $ $ $ 8 U 3 O o o o o ",
"O o o o o 5 W w u r r r r r u o.e.e.e.e.e.e.e.e.%.u $ r r r r % e W q o o o o o ",
"O o o o o ( a.-.j d d h d d d u ; ; ; ; - ; ; ; u d j j h h h j &.a.} O o o o o ",
"o o o o o _ f.3.k k k k A Z h r $ $ $ $ $ $ $ $ r h j k k k k k ;.f...+ o o o O ",
"O o O o o _ f.y.*.*.*.*.3.{ *.[ ] ] ] ] ] ] ] ] [ *.*.*.*.*.*.*.y.f...+ o o o O ",
"O O O o o _ f.f.f.f.f.f.f.f.d.d.f.f.f.f.f.f.f.f.d.f.f.s.d.f.s.f.f.f...O o o o O ",
"+ + O + + _ i.i.i.i.a.t.i.y.i.u.i.w.i.i.y.i.w.i.i.y.i.i.i.i.i.i.i.i. .@ + + + + "
};
