/* XPM */
static char *_4cc8da98c684f68cbd1a60ea098fcbdLwHQWWWKoNV4UoBg[] = {
/* columns rows colors chars-per-pixel */
"40 40 129 2 ",
"   c None",
".  c #391F2A",
"X  c #3D232E",
"o  c #3F2631",
"O  c #402732",
"+  c #412934",
"@  c #452E39",
"#  c #47313C",
"$  c #49323D",
"%  c #4C3642",
"&  c #4E3A46",
"*  c #4D3C49",
"=  c #503B47",
"-  c #513D49",
";  c #54424E",
":  c #564451",
">  c #584753",
",  c #5A4955",
"<  c #564A5A",
"1  c #5D4C58",
"2  c #61515E",
"3  c #5F5869",
"4  c #635562",
"5  c #685A67",
"6  c #635C6D",
"7  c #6B5E6B",
"8  c #6D616E",
"9  c #666173",
"0  c #716673",
"q  c #736876",
"w  c #766C7A",
"e  c #79707E",
"r  c #6D6E82",
"t  c #6F7287",
"y  c #7C7482",
"u  c #7F7886",
"i  c #79788A",
"p  c #767C92",
"a  c #797C90",
"s  c #847E8D",
"d  c #7E8397",
"f  c #7F8AA1",
"g  c #86808F",
"h  c #898493",
"j  c #80879C",
"k  c #84899D",
"l  c #8E8B9A",
"z  c #92909F",
"x  c #848DA4",
"c  c #8694AC",
"v  c #8F95A9",
"b  c #9291A0",
"n  c #9898A7",
"m  c #9B9CAB",
"M  c #8797B0",
"N  c #8799B2",
"B  c #8A9BB4",
"V  c #8FA0B8",
"C  c #9CA1B3",
"Z  c #93A3BB",
"A  c #9EA6B8",
"S  c #9BA9BF",
"D  c #A1A3B3",
"F  c #A5A9B9",
"G  c #A9ADBD",
"H  c #9EADC3",
"J  c #A4AFC3",
"K  c #A3B1C7",
"L  c #AEB4C5",
"P  c #A6B4C9",
"I  c #AAB6CA",
"U  c #AEBACE",
"Y  c #B0B6C7",
"T  c #B4BCCC",
"R  c #B2BFD2",
"E  c #B2BED1",
"W  c #B5BFD1",
"Q  c #B6BFD0",
"!  c #B7BFD0",
"~  c #B7C0D0",
"^  c #B7C1D2",
"/  c #B6C2D4",
"(  c #B8C0D1",
")  c #B8C1D1",
"_  c #B8C1D2",
"`  c #B8C2D2",
"'  c #BAC3D4",
"]  c #B9C4D5",
"[  c #BAC4D4",
"{  c #BAC4D5",
"}  c #BBC4D5",
"|  c #BBC5D5",
" . c #B8C4D6",
".. c #B9C4D6",
"X. c #B9C5D7",
"o. c #BBC5D6",
"O. c #BAC5D7",
"+. c #BAC6D7",
"@. c #BCC6D7",
"#. c #BCC7D7",
"$. c #B8C0D1",
"%. c #B9C5D8",
"&. c #BAC6D8",
"*. c #BBC7D8",
"=. c #BBC7D9",
"-. c #BDC7D8",
";. c #BCC7D9",
":. c #BCC8D9",
">. c #BDC8D9",
",. c #BEC8D9",
"<. c #BDC8DA",
"1. c #BEC9DA",
"2. c #BEC9DB",
"3. c #BFCADB",
"4. c #BEC9D9",
"5. c #C0CBDC",
"6. c #C1CBDC",
"7. c #C0CCDD",
"8. c #C1CCDD",
"9. c #C1CCDE",
"0. c #C1CDDE",
"q. c #C2CDDE",
"w. c #C2CDDF",
"e. c #C2CEDF",
"r. c #C0CCDC",
"t. c #C3CFE0",
"y. c #C3D0E1",
"u. c #C4D0E1",
"i. c #C5D1E3",
/* pixels */
"                                                                                ",
"                                                                                ",
"                                                                                ",
"                                                                                ",
"                      o o o o o o o o o o o O o o o o o o                       ",
"                    o o o o o o o o o o o o X o o o o o O                       ",
"                  O o o o o o o o O o O o O o O o o O o o o O                   ",
"                o X o o o o X o X X X X X X X X o X X o o o o o                 ",
"                O o o o o * * ; : : : : : : : : ; * * o o o o o                 ",
"            o o o o X X ; x c U ~ ! ! ! ! ! ! ) K c f % o o o o o o             ",
"            o o o o + O : N V / 6.6.5.5.5.5.3.0.U B c ; o o o o o o             ",
"            o o X o 6 p x U E 2.6.6.5.5.5.5.6.6.+.T U j p < X o o o             ",
"            o o o o r B H =.5.5.5.5.5.5.0.5.5.2.3.3.=.Z B 3 X o o o             ",
"            o o o o i H P 2.5.5.5.5.5.5.2.0.5.5.0.3.3.K H 9 X o o o             ",
"            o o X o l 0.3.0.0.0.6.6.6.5.0.0.0.3.3.0.3.3.3.w X o o o             ",
"            o o o o l 0.+.L L L Y T 6.| Y L L L ~ 3.y.3.3.w X o o o             ",
"            o o o o l u.D - % % $ s 6.G ; % = $ w 5.5.5.5.w X O o o             ",
"            o o o o l u.D @ X X X e 6.G @ X X X 8 5.5.5.0.w X O o o             ",
"            o o o X l u.D + O O X w e.G @ O O X 8 5.5.5.5.w X X o o             ",
"            o o o o l t.D + X X X w 0.G @ X X X 7 5.5.5.5.w X O o o             ",
"          o o O o o l t.G 5 4 4 2 l 0.L 7 4 4 4 g 2.5.5.0.w X O o o             ",
"      o o o o o X o l 0.5.;.;.;.4.4.0.2.4.2.#.#.2.5.5.5.5.w X O O o o o O       ",
"      o o o o o o o l t.5.5.5.+.` ` +.) ) ' 5.5.5.5.5.5.5.w X X O o o o o       ",
"  O O o o o o o o o l 5.5.5.' 0 , 1 1 1 1 1 m 0.5.5.5.5.5.w X O o o o o o O O   ",
"  o o o o o X X o o l 5.5.5.) : X X X X X X z q.5.5.5.5.0.w X X O X O O X X O   ",
"  o o o o : u e $ X l t.5.5.) > X O O X O O b q.5.5.5.5.5.w X % e y % O O O O   ",
"  o o o X w y.T & X l t.5.5.! > X X X X X O b q.5.5.5.5.0.q . , #.#.1 O X O O   ",
"  O o o X q 0.T 4 - z &.%.5.) > X $ ; = O O b q.5.5.2.' +.u = 7 ' ) 1 X O X X   ",
"  o o o X q 3.2.W T H B S 2.~ > X 0 ~ D $ X b 0.5.5.2.Z B K T ! 5.) 1 X o o o   ",
"  o o o X 0 3.0.3.t.H M S 2.) , X e 0.G $ O b t.5.5.4.Z N I q.5.5.#.1 X o o o   ",
"  o o o X q 5.5.3.5.H N Z 5.2.D n G 0.) m m Y 6.5.5.;.Z N I 5.5.5.) 1 X O o o   ",
"  o o o X q 5.5.3.3.J B S ;.0.0.0.5.5.5.0.0.0.2.5.5.2.Z B I 5.5.5.+.1 X o X O   ",
"  O o o X q 2.0.3.0.v t k 4.6.3.5.5.5.5.5.5.5.5.5.5.' d t F 3.3.5.) 1 X o o o   ",
"  o o o X q 0.3.6.2.8 X 2 ` 3.6.5.5.5.5.5.5.5.5.5.5.W : X h 0.0.0.+.1 X o o o   ",
"  o o o X 8 Y T 2.6.0 . 1 / *.+.' +.+.+.+.' &.&./ T G - X h q.#.Y L , X o o O   ",
"  o o o o # - , L 0.0 X : B V Z V Z V Z V Z V Z a - = + X h q.G ; & @ O o o o   ",
"  o o o O o X $ Y q.0 X ; N B B N N N N N N N B r X . X O h u.F @ X X O o O o   ",
"      O o o o @ 0 e ; X # 3 9 Z I P I P P P I P C s s $ X 2 y 8 O O O O O       ",
"      o X o o o X X X O O X @ F 0.5.5.5.5.5.5.5.5.0.! ; X X X X O X o X O       ",
"      + O O O o O O O O O O $ F 5.4.4.4.4.2.4.5.;.2.T : O O O O O O O O +       "
};
