/* XPM */
static char *_eed1e19b74c4525ea68b716f0bc1492Kd54BSCXlmfXRLXg[] = {
/* columns rows colors chars-per-pixel */
"40 40 129 2 ",
"   c None",
".  c #391F2A",
"X  c #3D232E",
"o  c #3F2631",
"O  c #402732",
"+  c #412934",
"@  c #452E39",
"#  c #47313C",
"$  c #49323D",
"%  c #4C3642",
"&  c #4E3A46",
"*  c #4D3C49",
"=  c #503B47",
"-  c #513D49",
";  c #54424E",
":  c #564451",
">  c #584753",
",  c #5A4955",
"<  c #564A5A",
"1  c #5D4C58",
"2  c #61515E",
"3  c #5F5869",
"4  c #635562",
"5  c #685A67",
"6  c #635C6D",
"7  c #6B5E6B",
"8  c #6D616E",
"9  c #666173",
"0  c #716673",
"q  c #736876",
"w  c #766C7A",
"e  c #79707E",
"r  c #6D6E82",
"t  c #6F7287",
"y  c #7C7482",
"u  c #7F7886",
"i  c #79788A",
"p  c #767C92",
"a  c #797C90",
"s  c #847E8D",
"d  c #7E8397",
"f  c #7F8AA1",
"g  c #86808F",
"h  c #898493",
"j  c #80879C",
"k  c #84899D",
"l  c #8E8B9A",
"z  c #92909F",
"x  c #848DA4",
"c  c #8694AC",
"v  c #8F95A9",
"b  c #9291A0",
"n  c #9898A7",
"m  c #9B9CAB",
"M  c #8797B0",
"N  c #8799B2",
"B  c #8A9BB4",
"V  c #8FA0B8",
"C  c #9CA1B3",
"Z  c #93A3BB",
"A  c #9EA6B8",
"S  c #9BA9BF",
"D  c #A1A3B3",
"F  c #A5A9B9",
"G  c #A9ADBD",
"H  c #9EADC3",
"J  c #A4AFC3",
"K  c #A3B1C7",
"L  c #AEB4C5",
"P  c #A6B4C9",
"I  c #AAB6CA",
"U  c #AEBACE",
"Y  c #B0B6C7",
"T  c #B4BCCC",
"R  c #B2BFD2",
"E  c #B2BED1",
"W  c #B5BFD1",
"Q  c #B6BFD0",
"!  c #B7BFD0",
"~  c #B7C0D0",
"^  c #B7C1D2",
"/  c #B6C2D4",
"(  c #B8C0D1",
")  c #B8C1D1",
"_  c #B8C1D2",
"`  c #B8C2D2",
"'  c #BAC3D4",
"]  c #B9C4D5",
"[  c #BAC4D4",
"{  c #BAC4D5",
"}  c #BBC4D5",
"|  c #BBC5D5",
" . c #B8C4D6",
".. c #B9C4D6",
"X. c #B9C5D7",
"o. c #BBC5D6",
"O. c #BAC5D7",
"+. c #BAC6D7",
"@. c #BCC6D7",
"#. c #BCC7D7",
"$. c #B8C0D1",
"%. c #B9C5D8",
"&. c #BAC6D8",
"*. c #BBC7D8",
"=. c #BBC7D9",
"-. c #BDC7D8",
";. c #BCC7D9",
":. c #BCC8D9",
">. c #BDC8D9",
",. c #BEC8D9",
"<. c #BDC8DA",
"1. c #BEC9DA",
"2. c #BEC9DB",
"3. c #BFCADB",
"4. c #BEC9D9",
"5. c #C0CBDC",
"6. c #C1CBDC",
"7. c #C0CCDD",
"8. c #C1CCDD",
"9. c #C1CCDE",
"0. c #C1CDDE",
"q. c #C2CDDE",
"w. c #C2CDDF",
"e. c #C2CEDF",
"r. c #C0CCDC",
"t. c #C3CFE0",
"y. c #C3D0E1",
"u. c #C4D0E1",
"i. c #C5D1E3",
/* pixels */
"                                                                                ",
"                                                                                ",
"                                                                                ",
"                                                                                ",
"                      o o o o o + o o o o + + X o o o o +                       ",
"                      o o o o o o o o X o X o o o o o o X o                     ",
"                  o o o o o o o o o o + o o + X o o O o o O +                   ",
"                o o o o o o X X X X X X X X X X X X X o o X o o                 ",
"                o o o o o * * ; : : : : : : : : : * * @ o o o o                 ",
"            O o O o o X & f c J $.! ! ! ! ! ! ~ I c f ; X o o o o o             ",
"            o X o o o + * c B U q.6.5.5.5.5.6.7.' V M : o o o o o o             ",
"            o o o X < p j U R &.5.5.5.5.5.5.7.3.<.~ U x p 3 o o o o             ",
"            o o o X 6 B Z <.6.6.5.5.5.5.7.6.3.3.3.3.<.S B r o o o o             ",
"            o o o X 6 H K <.6.6.5.5.5.5.3.6.7.6.3.3.3.P K p X o o o             ",
"            o o O X w 7.3.<.7.7.5.5.6.q.3.3.7.7.t.7.7.7.3.l o o o o             ",
"            o o o X w 6.7.6.5.T Y Y Y Y -.6.Q L L L L +.t.l X o o o             ",
"            o o o X w t.6.3.3.w $ $ = ; G e.s $ % % - D u.l O O o o             ",
"            o o o X w 6.3.3.3.8 X X O # G e.w X O X + C u.l X X o o             ",
"            o o o o w 6.t.3.3.8 X O X @ G e.w X O X + D u.l O X o o             ",
"            o o o X w t.3.3.3.8 . X O @ G e.w . X X + D u.l X O o o             ",
"            o o o X q 9.6.3.3.g 2 2 2 7 Y 7.l 2 4 4 5 G u.l O o o O o           ",
"      + o o o o o X w 9.7.3.3.3.#.6.#.6.5.8.5.#.<.-.<.3.7.l O X o O o + o       ",
"      o o o o o o X w 3.7.6.3.6.5.6.' ` ' ` ' ` #.<.6.3.7.l X o o o X o o       ",
"  + o o o o o o o X w t.3.6.7.7.8.m 1 1 1 1 1 1 0 +.6.6.t.l o o o O o o O o +   ",
"  o o o o o X X o X w 6.6.3.6.3.6.z X X X X O . : ` 5.5.e.l O X X X o o o o o   ",
"  o o o X & y y % X w 6.3.6.7.3.t.z O O O X O X : ` 5.5.e.l O # e u , X o o o   ",
"  + o o X 1 } ' , . q t.7.3.3.6.6.b O X X X o X > ` 5.5.e.l . = T y.q X o o o   ",
"  o o o X 1 ' ' 5 * u &.&.3.6.3.7.b O + = - $ X > ` 5.+.&.b - 2 T 7.q X o o o   ",
"  O X o X 1 #.5.Q T J B Z -.5.5.t.b O # D T q . > ` &.H B H T T <.7.q X o o o   ",
"  O o o X 1 ` 5.3.t.I B Z } 5.5.e.b + $ G t.e o > ` &.H B J 6.6.7.3.q X o o o   ",
"  o o O X 1 ' 6.3.3.I B Z -.5.5.5.T n m ` 6.J n D -.<.Z B H 3.6.7.6.q X o o O   ",
"  o X O X 1 ' 6.t.3.I B Z -.5.5.5.6.e.e.5.5.q.6.t.6.&.H B H 6.3.3.6.q X o o o   ",
"  O o o X 1 ` 6.6.7.A t j ` 5.5.7.7.5.5.5.5.6.3.6.3.<.k t v 3.6.3.3.q o o o o   ",
"  o o o X 1 #.6.6.7.h X ; ! 7.5.<.<.5.5.5.5.6.6.3.6.-.1 . 0 6.3.t.3.q X o o o   ",
"  o o o X , L T -.e.h X ; G T ` +.+.+.+.+.+.+.' &.&.~ 1 . 0 6.-.T T 8 X o o O   ",
"  o o o o + & ; G t.h X + & - i Z Z V Z Z V V Z Z Z B : X 0 6.L , * @ o o o o   ",
"  o o O o o X @ F u.h O o X X r B B B M B B B B B B c : . 0 t.L $ X o o o o o   ",
"      O o o o + 0 y 2 X % y s C P P P P K P K I Z 9 6 $ X : y 0 @ o o o o       ",
"      + X o o o X X X X ; ` 7.6.8.5.5.5.8.5.5.7.F # X O o o o o o o o o o       ",
"      + O O O o O o + X ; T <.<.4.4.4.4.4.<.<.5.D $ O O o o o o o o o o +       "
};
