/* XPM */
static char *_2555d115b4a4ed5a174af0925f1426e4wPissmddqcylvZo[] = {
/* columns rows colors chars-per-pixel */
"40 40 107 2 ",
"   c #37232D",
".  c #39252F",
"X  c #23273E",
"o  c #25293F",
"O  c #2E293B",
"+  c #372734",
"@  c #3B2630",
"#  c #3D2A34",
"$  c #302939",
"%  c #3E2E3A",
"&  c #3B303E",
"*  c #442C33",
"=  c #5F3D3A",
"-  c #6D463E",
";  c #262A41",
":  c #292C42",
">  c #2D3045",
",  c #2E334A",
"<  c #31364D",
"1  c #34394F",
"2  c #353B52",
"3  c #393E56",
"4  c #473844",
"5  c #4F3C44",
"6  c #453E4F",
"7  c #3D435A",
"8  c #3F4760",
"9  c #4A4353",
"0  c #41465C",
"q  c #49475A",
"w  c #444A5F",
"e  c #4B4A5E",
"r  c #544C5B",
"t  c #794D41",
"y  c #7E5042",
"u  c #434A62",
"i  c #494E64",
"p  c #4C546C",
"a  c #5C5564",
"s  c #5F5B6A",
"d  c #4D5771",
"f  c #4F5972",
"g  c #525C75",
"h  c #545F79",
"j  c #5B6077",
"k  c #55607A",
"l  c #5A647C",
"z  c #67606E",
"x  c #656273",
"c  c #6E6673",
"v  c #726A76",
"b  c #825344",
"n  c #9D634B",
"m  c #AE6E4F",
"M  c #A9755F",
"N  c #B47251",
"B  c #AB7761",
"V  c #5B6680",
"C  c #5D6880",
"Z  c #626D85",
"A  c #667189",
"S  c #6A748C",
"D  c #6F788E",
"F  c #6B7790",
"G  c #6E7A92",
"H  c #727E96",
"J  c #75819A",
"K  c #7A869C",
"L  c #7C889F",
"P  c #7E89A0",
"I  c #898D9E",
"U  c #828EA5",
"Y  c #8590A7",
"T  c #8892A7",
"R  c #8693AA",
"E  c #8894AB",
"W  c #8895AC",
"Q  c #8996AD",
"!  c #8A97AE",
"~  c #8D99AF",
"^  c #9097AA",
"/  c #919AAD",
"(  c #8D9AB0",
")  c #8D9AB1",
"_  c #8D9AB2",
"`  c #8E9BB3",
"'  c #8E9CB2",
"]  c #8E9CB3",
"[  c #8F9DB4",
"{  c #909DB4",
"}  c #919EB5",
"|  c #94A1B7",
" . c #A2AABB",
".. c #A0AABD",
"X. c #A7B2C5",
"o. c #A9B1C1",
"O. c #A8B2C4",
"+. c #AFB8C9",
"@. c #B1BACA",
"#. c #B2BBCC",
"$. c #B7C1D1",
"%. c #BAC3D2",
"&. c #BAC4D4",
"*. c #BCC6D6",
"=. c #C3CCDB",
"-. c #C4CDDC",
";. c #C5CEDD",
/* pixels */
"g g g g p : ; X ; X o ; o o ; X o o o o ; ; ; ; X X ; X X ; X X X ; , d g g f k ",
"g h k k d : ; : ; ; ; ; ; ; : ; : ; : : ; ; ; ; ; : ; : : : ; ; ; ; , g k h k k ",
"G G h 0 7 : ; ; ; ; ; ; ; ; ; ; ; ; ; : ; ; ; ; ; ; ; ; ; ; : ; ; ; > 7 8 V J D ",
"( [ g o ; ; ; ; ; ; ; ; ; ; ; ; ; ; ; ; ; ; ; ; ; ; ; ; ; ; ; ; ; ; ; ; ; A [ R ",
"P P p X ; ; ; , 2 2 2 2 2 2 2 2 2 , , , , , 1 2 2 2 2 2 2 2 2 2 , ; ; ; : x U K ",
"< < > ; ; ; ; l R U U U U U U U Y C d g d d G P P Y L Y P R R P i : : ; : > < 1 ",
": : ; : ; o X Z } [ [ ` [ [ ( } } D k k k k J } } ] ] ~ ] Q ` } f X ; ; ; ; ; > ",
"; : : o < h j A H D x x x x x x x h k k k k J ( ] ] ] ] ] R J J C k d , ; ; ; > ",
"; ; ; ; 7 E ] G h p . . @ @   @ @ e k k k k J ( ] ( ~ ( [ U k h K [ P , ; ; ; > ",
"; ; ; ; 7 E ( S g i * . @ @ @ @ . q g h f f F U Y Y Y Y R K V l K [ P , ; ; : > ",
"; ; ; ; 7 R [ s % % @ @ @ @ @   @ * > * , , 2 2 2 2 2 2 2 i U R ! [ P , ; ; ; > ",
"; ; ; ; 7 Q [ a   @ @ @ @ @ @ + @ @ + + ; ; ; ; ; ; o ; ; 7 Q ( [ ` P , ; ; ; : ",
"; ; ; ; 7 Y ] a   @ @ @ = t - @ @ @ @ + ; : : ; ; ; ; : ; 7 Q ( ( [ P , ; ; ; > ",
"; ; ; ; 7 R ] a @ @ @ @ b N m * @ @ @ + : ; ; : ; : ; ; ; 7 Q ( ( ( K , ; ; ; > ",
"; ; ; X 7 ~ | s   @ @ @ b N n * @ @ @ + : ; : ; ; ; ; ; ; 7 ( [ | | U , ; ; ; > ",
"; ; ; ; 0 #.*.c   @ @ @ b N n * @ @ @ + : ; ; ; ; ; ; ; ; i #.*.*.*. ., ; ; ; > ",
"; ; ; X u %.-.c   @ @ @ b N n * @ @ @ + : ; ; ; ; : ; ; ; i *.-.=.-.O.< O ; ; > ",
"; ; 2 u p U E a . @ . @ b N n * @ @ @ + ; ; ; ; ; ; ; : ; 7 U Y R R K u 8 , ; > ",
"; ; u k k k h 6 @ @ . @ b N n * @ @ @ + : ; ; ; ; ; ; ; ; < g g h h h k k 3 ; > ",
"; ; 0 k k k k 6 @ @ @ @ b N n * @ @ @ + : ; ; ; : ; : ; ; < g k k k h k k 3 ; : ",
"X ; u h k k k 6 . @ @ @ b N n * @ @ @ + : : ; ; ; ; ; ; ; 1 h h k k k k h 3 o > ",
"; ; u h k h k 6 . @ @ @ b N n * @ @ @ + : ; ; ; ; ; ; ; ; , g h h k h k h 3 ; > ",
"; ; 2 7 i F G r . @ @ @ b N n * @ @ @ @ $ $ O ; : ; ; ; ; 3 F G G G A u 7 1 ; > ",
"; ; ; ; 7 Q } a . @ @ @ b N n * @ @ @ @ @ @ O ; ; ; ; ; ; 7 Q [ ( [ P , ; ; ; > ",
"; ; ; ; 7 E ( a   @ @ @ b N n 5 4 * @ @ @ @ O ; : ; : ; ; 7 Q ( ( [ L > ; ; ; > ",
"; ; ; X 3 E } a . @ @ @ b N M I U r @ @ # @ O ; ; ; ; ; ; 8 Q ( ~ } L < ; : : > ",
"; ; ; ; 7 R [ a . @ @ @ b N B ^ ` a . @ @ @ $ ; : : : ; ; 7 Q ( ~ [ L , ; ; ; > ",
"; ; ; ; 7 o.X.z   @ @ @ b N B ^ [ r . @ @ @ O ; ; : : : ; 8 ..X.O.O./ < ; ; ; : ",
"; ; ; ; u &.-.v . @ @ @ b N B ^ ` a   @ @ @ $ : ; : ; : ; i &.=.=.=.X.2 ; ; ; > ",
"; ; ; > i +.&.c   @ @ @ b N M T U r @ @ @ @ $ : ; ; ; ; ; u #.#.$.$.| 3 ; : ; > ",
"; ; 7 f g Z A 9 @ @ @ @ b N n 5 4 * . @ @ @ : ; ; : ; ; ; 2 Z A A A C d d 2 X > ",
"; ; u k h h h 6 . @ @   b N n * @ @ @ @ @ @ $ ; ; ; ; ; ; , h h h k k k h 7 ; > ",
"; ; 8 h h k k 6 @ @ @ @ b N n * @ @ @ @ $ $ : ; ; ; ; ; ; < g k k k k k h 3 X > ",
"; ; 8 h h h h 6 @ @ @ @ b N n * @ @ @ + : : ; ; ; ; ; > ; 1 g h h h h k k 3 ; > ",
"; ; 8 f g V V 9 @ @ @ @ b N n * @ @ @ + ; ; ; ; ; ; ; ; ; 1 l l V V C d f 3 ; > ",
"; ; > , 7 U R a @ @ @ @ b N n * @ @ . + O ; ; ; ; ; ; ; ; 7 P R E Q J 2 , : ; > ",
"; ; ; ; 3 R [ a . @ @ @ b N n * @ @ @ + ; ; ; : > ; ; ; ; 7 ~ ] ( ( K , ; ; : > ",
"; ; ; X 7 R } a . @ @ @ b N n * @ @ @ + ; ; ; : ; ; : ; ; 7 R ] ( [ P , ; ; : > ",
"; ; ; ; 7 R ` a . @ @ @ b m n * @ @ @ + ; : : : ; ; ; ; ; 7 R ] [ [ P , ; ; ; : ",
"; X ; X 3 U Q a   . . . t m n * . . . + o X o X ; ; ; ; X 7 Y R Q Q J , ; ; X ; "
};
