/* XPM */
static char *e5c55376e6cc4b8cc9eda1d8119030c2FAjYDaOJNWGPD1aR[] = {
/* columns rows colors chars-per-pixel */
"40 40 134 2 ",
"   c #37242F",
".  c #39252F",
"X  c #23273E",
"o  c #2F2738",
"O  c #25283F",
"+  c #2C293D",
"@  c #362733",
"#  c #3A2731",
"$  c #352835",
"%  c #3E2932",
"&  c #312839",
"*  c #3D2D38",
"=  c #472D33",
"-  c #482D32",
";  c #4E3235",
":  c #44333F",
">  c #553334",
",  c #593636",
"<  c #663A36",
"1  c #6C3D37",
"2  c #6D3E38",
"3  c #74433A",
"4  c #7A473C",
"5  c #744A3F",
"6  c #7C493D",
"7  c #262A41",
"8  c #292C43",
"9  c #2B3047",
"0  c #2D3249",
"q  c #343143",
"w  c #3A3445",
"e  c #30354C",
"r  c #33384F",
"t  c #363B52",
"y  c #393E54",
"u  c #453641",
"i  c #463A45",
"p  c #3C4157",
"a  c #3D445D",
"s  c #474456",
"d  c #484457",
"f  c #40465C",
"g  c #4F4B5D",
"h  c #654846",
"j  c #6D4A45",
"k  c #6B4D49",
"l  c #734A40",
"z  c #784D41",
"x  c #745149",
"c  c #694F54",
"v  c #755556",
"b  c #434B64",
"n  c #4B536A",
"m  c #585466",
"M  c #50586F",
"N  c #4D5771",
"B  c #4E5972",
"V  c #525C75",
"C  c #545F79",
"Z  c #615E70",
"A  c #586077",
"S  c #55607A",
"D  c #5A657E",
"F  c #666374",
"G  c #6C6573",
"H  c #676678",
"J  c #6C6B7D",
"K  c #7D6B73",
"L  c #736F7E",
"P  c #7E6F78",
"I  c #8C5644",
"U  c #915845",
"Y  c #94614D",
"T  c #9C634C",
"R  c #A3664C",
"E  c #A6684D",
"W  c #A96A4E",
"Q  c #AB6E53",
"!  c #AC755C",
"~  c #B37151",
"^  c #846E73",
"/  c #5A6680",
"(  c #5F6A82",
")  c #626D85",
"_  c #67728A",
"`  c #6A758D",
"'  c #7A7583",
"]  c #7D7886",
"[  c #6E7A92",
"{  c #727E96",
"}  c #737F98",
"|  c #827D8A",
" . c #758199",
".. c #7A859C",
"X. c #7E8AA1",
"o. c #818A9F",
"O. c #828DA4",
"+. c #8490A7",
"@. c #8692AA",
"#. c #8A96AD",
"$. c #8D98AE",
"%. c #9296A6",
"&. c #9397A8",
"*. c #8E9BB2",
"=. c #8E9CB3",
"-. c #8F9DB4",
";. c #8E9DB6",
":. c #919DB3",
">. c #909DB4",
",. c #909DB5",
"<. c #909EB5",
"1. c #919EB5",
"2. c #929FB5",
"3. c #93A0B6",
"4. c #94A2B8",
"5. c #9AA5B8",
"6. c #A2ABBC",
"7. c #A4ADBE",
"8. c #A7B1C4",
"9. c #A8B1C2",
"0. c #AAB4C5",
"q. c #ACB4C4",
"w. c #ACB5C6",
"e. c #A9B4C8",
"r. c #B1B9C9",
"t. c #B4BDCD",
"y. c #B5BDCD",
"u. c #B7C1D1",
"i. c #BBC5D5",
"p. c #BDC7D7",
"a. c #C4CDDB",
"s. c #C5CDDC",
"d. c #C5CEDD",
"f. c #C7D0DF",
/* pixels */
"V V V C n 8 7 7 7 7 7 7 7 7 7 7 7 7 7 X 7 7 7 7 7 7 7 7 7 7 7 7 7 7 0 V V V V B ",
"V C S S B 9 7 7 7 8 7 7 7 7 8 7 7 7 7 7 7 8 7 7 7 7 8 7 7 7 7 7 7 7 0 C C C S V ",
"[ } S a a 7 7 7 7 8 7 7 7 7 7 7 7 7 7 8 7 7 8 7 7 7 7 7 7 7 7 7 7 7 8 p a S { [ ",
"$.<.A O 7 7 7 7 7 7 7 7 7 7 7 7 7 7 7 7 7 7 7 7 7 7 7 7 7 7 7 7 7 7 7 7 7 S <.$.",
"O.+.V O 7 7 7 9 e e 0 e 0 e e e e 0 9 9 9 9 0 e 0 e e e e e e e 9 7 7 7 7 V O.X.",
"r y 0 7 7 7 7 B O.X.X.X.X.X.X.X.O._ N V N N _ O.X.X.X.X.X.X.X.X.M + 7 8 7 0 t t ",
"O O 7 7 7 7 X A ,.,.,.<.<.,.<.<.<.} C C C C  .<.<.<.*.*.;.<.;.<.A O 7 7 7 7 7 X ",
"O 8 8 7 0 V A ) { { H F F F F F F m d d d d m F J #.*.*.*.#. .} ) C M 9 7 8 7 7 ",
"O 7 7 7 t +.<.{ C M % .   . . . . . # # # # . # u O.,.,.,.@.D V { <.O.e 7 7 7 7 ",
"7 7 8 7 t +.<.{ V n * # = # # # # # # # # # # # : O.O.O.O.X.) D  .<.X.e 7 7 7 7 ",
"7 7 7 7 t +.-.H * * # # # # # # # = # # # # # # # : : w r a X.O.#.=.X.0 7 8 7 7 ",
"7 8 7 O t +.-.F . # # # . # # .   # . # . # # # # . . @ 8 e O.<.*.<.X.e 7 7 7 7 ",
"O 7 7 7 t O.-.F . # # . - , , 5 l z z l , , = # # & & + 7 r O.*.*.*.X.e 7 7 7 X ",
"7 7 7 7 t +.-.F . # % # > 1 4 W ~ ~ ~ W 3 2 > # @ 7 8 7 7 r O.*.=.=.X.e 7 7 7 7 ",
"7 7 7 7 t #.4.H . # # . , 3 4 R W W W R 4 2 > # @ 8 7 7 8 r O.<.:.<.O.e 7 7 7 7 ",
"O 7 8 7 p w.p.] . # # # 5 W R 4 3 4 4 4 R E h + + @ @ o 7 y 9.p.i.p.7.t 7 8 7 7 ",
"7 7 7 X p y.f.| . # # . z ~ R 3 1 1 1 3 W ~ k 7 7 # # & 7 y r.s.a.d.w.e 7 7 7 7 ",
"7 7 e a n O.$.F . % # # z ~ E 3 1 2 2 3 W ~ j o o o & + 7 r O.&.#.#.o.b a t 7 7 ",
"7 7 b S S C C d . # # # z ~ E 3 2 2 1 3 W ~ l # @ 7 7 7 7 0 N C C C C S C f 7 7 ",
"7 7 a S S C S d # # # # z ~ R 3 2 2 2 3 R ~ l # @ 7 8 + 7 9 N C S S C S S f 7 7 ",
"7 7 a C S S S d # # # # z ~ E 3 1 2 1 3 W ~ k 7 8 @ @ & 7 9 N C S S S S S a 7 7 ",
"X 7 b S S C S d # # # . z ~ E 3 1 1 1 3 W ~ h 7 + # # & 7 0 V C C S C S S a 7 O ",
"7 7 e a b [ } m . % % # z ~ R 3 1 v P ^ Q ~ j o & & & + 7 e _ } { { ` b a t 7 7 ",
"7 7 7 7 t +.*.F . # # . z ~ R 3 1 K *.&.! ~ l # # 7 7 7 7 r O.,.*.<.X.0 7 7 7 7 ",
"7 7 7 7 t +.-.F . # # . z ~ E 3 < K *.%.! ~ l @ @ 7 7 7 7 r O.*.*.*.X.e 7 8 7 7 ",
"7 7 7 7 t +.<.F # # % # z ~ E 3 1 K *.%.! ~ k 7 + @ @ & 7 t O.*.*.*.X.0 7 7 7 7 ",
"X 7 7 7 t O.-.F . # # # z ~ E 3 1 K *.%.! ~ h 7 7 # # & 8 r O.*.*.*.X.e 7 8 7 7 ",
"7 7 7 7 y 5.e.L . # # . z ~ E 3 1 c F G Q ~ j o & & & & 7 y <.8.8.0.<.e 7 7 7 7 ",
"7 7 7 7 p y.d.| . # # # 4 ~ R 3 1 > @ = R ~ l # @ 7 7 7 7 y r.s.d.d.9.t 7 7 7 7 ",
"7 7 8 9 f 9.u.' # % # . z ~ E 3 1 , - - R ~ l # @ 7 7 7 X y 6.y.t.u.5.p 9 7 7 X ",
"7 7 a B V ) ) g # # # # z ~ E 3 1 < 1 1 W ~ k 7 8 7 7 8 7 0 D ) ( ) ( B B a 7 7 ",
"7 7 f S C S S d # # # # z ~ W 3 1 1 < 3 Q ~ k 7 7 7 8 7 7 9 N C S S S S / a 7 7 ",
"7 7 a C C S S d @ % # # l ~ W 3 1 6 U I k k i 7 7 8 8 7 7 0 B S S S S S S a 7 7 ",
"7 7 f S C C S d # % # # z ~ R 3 < I ~ E q 7 7 7 7 7 7 7 7 9 B S S S V S S a 7 7 ",
"7 7 a V V / D d # # # # l ~ W 4 3 I E Y w 7 7 7 7 7 7 9 7 0 C D / D / V V a 7 7 ",
"7 7 9 0 y X.#.Z # # # # z ~ ~ R E x w w 7 7 7 7 7 7 7 7 7 e ..@.O.@...t 0 8 7 7 ",
"X 7 7 7 t X.*.F . # # # z ~ ~ ~ ~ x 7 7 7 7 7 8 9 7 8 7 7 t @.*.-.-.X.e 7 7 7 7 ",
"7 7 7 7 t @.*.G . % # . z ~ Q x k i 7 7 7 7 8 7 7 7 7 7 7 t X.*.*.-.X.e 7 7 7 O ",
"7 7 7 7 t @.-.G . # # # z ~ T q 7 7 7 7 8 7 7 7 7 7 7 7 7 t X.-.*.-.X.0 7 7 7 O ",
"X 7 7 X t X.*.C . . .   z W Y q 7 7 7 7 7 7 7 X 7 7 7 7 7 0 X.$.#.#...0 7 7 7 7 "
};
