/* XPM */
static char *_8a9234295c6462af7a740de7bfb296f71LffJGBVW610dXa[] = {
/* columns rows colors chars-per-pixel */
"40 40 247 2 ",
"   c #505A73",
".  c #525D76",
"X  c #4B556E",
"o  c #292E45",
"O  c #25293F",
"+  c #252940",
"@  c #2C3148",
"#  c #4E5871",
"$  c #525C76",
"%  c #545F79",
"&  c #55607A",
"*  c #56617B",
"=  c #4E5872",
"-  c #2B3047",
";  c #262A41",
":  c #272B42",
">  c #2E334A",
",  c #515B75",
"<  c #55617B",
"1  c #515C76",
"2  c #6F7B93",
"3  c #737F98",
"4  c #566078",
"5  c #3C435C",
"6  c #394058",
"7  c #292D44",
"8  c #2A2E45",
"9  c #3A415A",
"0  c #3C435B",
"q  c #6F7B92",
"w  c #8B98AE",
"e  c #919EB5",
"r  c #586077",
"t  c #24283F",
"y  c #808CA2",
"u  c #8591A8",
"i  c #535B72",
"p  c #30354C",
"a  c #2E324A",
"s  c #2B2F47",
"d  c #343950",
"f  c #363C53",
"g  c #2E3249",
"h  c #50586F",
"j  c #7F8BA2",
"k  c #7E8AA1",
"l  c #67728A",
"z  c #4D5771",
"x  c #262940",
"c  c #23273E",
"v  c #8F9DB4",
"b  c #909DB4",
"n  c #909DB5",
"m  c #748199",
"M  c #646E86",
"N  c #737F97",
"B  c #717B93",
"V  c #676678",
"C  c #666374",
"Z  c #666474",
"A  c #585466",
"S  c #484456",
"D  c #484457",
"F  c #363B52",
"G  c #909EB4",
"H  c #535F79",
"J  c #515870",
"K  c #3D2C38",
"L  c #39252E",
"P  c #39252F",
"I  c #3A252F",
"U  c #3A2630",
"Y  c #8490A7",
"T  c #8F9CB3",
"R  c #4F5369",
"E  c #3D2D38",
"W  c #3B2731",
"Q  c #3B2732",
"!  c #392630",
"~  c #482D32",
"^  c #553234",
"/  c #5A3636",
"(  c #754A40",
")  c #784D41",
"_  c #794D41",
"`  c #73493F",
"'  c #583535",
"]  c #553334",
"[  c #6D3D37",
"{  c #77453B",
"}  c #AC6C4F",
"|  c #B37151",
" . c #A8694D",
".. c #73423A",
"X. c #6D3E37",
"o. c #373C53",
"O. c #8894AA",
"+. c #94A2B8",
"@. c #686676",
"#. c #7B483D",
"$. c #A5674C",
"%. c #AA6B4E",
"&. c #AB6B4E",
"*. c #A2654B",
"=. c #78463C",
"-. c #95A2B8",
";. c #828EA4",
":. c #31354C",
">. c #3C4157",
",. c #ACB5C6",
"<. c #BDC7D7",
"1. c #7D7986",
"2. c #9F634A",
"3. c #76453B",
"4. c #7E4A3E",
"5. c #A4ADBE",
"6. c #34394F",
"7. c #3D4258",
"8. c #B5BDCD",
"9. c #C7D0DF",
"0. c #827D8A",
"q. c #39242E",
"w. c #B47251",
"e. c #A7684D",
"r. c #72423A",
"t. c #6B3D37",
"y. c #6C3D37",
"u. c #C7D1DF",
"i. c #ACB4C4",
"p. c #35394F",
"a. c #32384F",
"s. c #495068",
"d. c #8690A4",
"f. c #8F9AAE",
"g. c #666271",
"h. c #A6684D",
"j. c #6D3E38",
"k. c #909AAE",
"l. c #818BA0",
"z. c #444C64",
"x. c #3C445C",
"c. c #3F475F",
"v. c #535E78",
"b. c #474456",
"n. c #535E79",
"m. c #3F465F",
"M. c #55607B",
"N. c #54607A",
"B. c #444D65",
"V. c #6D7991",
"C. c #738099",
"Z. c #748099",
"A. c #6A768E",
"S. c #424962",
"D. c #353B52",
"F. c #909EB5",
"G. c #7F8AA1",
"H. c #30344B",
"J. c #6E423D",
"K. c #704643",
"L. c #6C3C36",
"P. c #7A6369",
"I. c #898EA1",
"U. c #898D9F",
"Y. c #6B3C36",
"T. c #838FA6",
"R. c #8F9CB4",
"E. c #656374",
"W. c #6C3C35",
"Q. c #7C6A72",
"!. c #8E9DB4",
"~. c #8E9BB3",
"^. c #6B3C35",
"/. c #7D89A0",
"(. c #3A3F55",
"). c #9AA5B8",
"_. c #A9B4C8",
"`. c #736F7E",
"'. c #8E9CB3",
"]. c #8E9BB2",
"[. c #A9B5C8",
"{. c #939DB1",
"}. c #33374E",
"|. c #3E4258",
" X c #B4BDCC",
".X c #C6CFDE",
"XX c #7D6A72",
"oX c #353950",
"OX c #262A42",
"+X c #40465C",
"@X c #A8B0C1",
"#X c #B7C1D1",
"$X c #7A7683",
"%X c #77636A",
"&X c #848EA3",
"*X c #848DA2",
"=X c #B8C1D2",
"-X c #A0A9BA",
";X c #393E55",
":X c #2B3048",
">X c #4F5A73",
",X c #525C75",
"<X c #606B83",
"1X c #626E86",
"2X c #4F4B5D",
"3X c #3A262F",
"4X c #59393C",
"5X c #443440",
"6X c #626E87",
"7X c #5F6982",
"8X c #515B74",
"9X c #543234",
"0X c #613836",
"qX c #59647E",
"wX c #5A6680",
"eX c #4B4759",
"rX c #58637D",
"tX c #515C75",
"yX c #2A2F46",
"uX c #2D3249",
"iX c #3A4158",
"pX c #8794AC",
"aX c #615F70",
"sX c #78839B",
"dX c #363B53",
"fX c #6B3C37",
"gX c #76443B",
"hX c #AB6C4F",
"jX c #905845",
"kX c #8D5543",
"lX c #925945",
"zX c #AD6D4F",
"xX c #262941",
"cX c #B17051",
"vX c #B27051",
"bX c #24283E",
"nX c #8B98AF",
"mX c #636070",
"MX c #38242D",
"NX c #37242F",
"BX c #754A3F",
"VX c #AB6C4E",
"CX c #8B99AF",
"ZX c #7A869C",
"AX c #2F334A",
"SX c #25283F",
"DX c white",
/* pixels */
"  . . . X o O + + + + + + + + + + + + + + + + + + + + + + + + + + O @ # . . .   ",
"$ % & * = - ; : : : : : : : : : : : : : : : : : : : : : : : : : : ; > , < & % 1 ",
"2 3 4 5 6 7 ; : : : : : : : : : : : : : : : : : : : : : : : : : : ; 8 9 0 4 3 q ",
"w e r t ; ; : ; ; ; ; ; ; ; ; ; ; ; ; ; ; ; ; ; ; ; ; ; ; ; ; ; ; : ; ; t r e w ",
"y u i + : : ; - p p p p p p p p p a s s s s a p p p p p p p p p - ; : : + i u y ",
"d f g ; : : + h j k k k k k k k j l z # # z l j k k k k k k k j h + : : ; g f d ",
"t x ; : ; + c r e v b n n n n n e m & < < & m e n n n n n b v e r c + ; : ; x t ",
"+ : : ; g i r M N B V C C C C C Z A S D D S A Z C C C C C V B N M r h - ; : : + ",
"+ : : + F u G N H J K L P P P P P I U U U U I P P P P P L K J H N e j p ; : : + ",
"+ : : x F Y T B J R E U W W W W W W W W W W W W W W W W U E R J B v k p ; : : + ",
"+ : : x F Y v V K E Q U W W W W W W W W W W W W W W W W U Q E K V b k p ; : : + ",
"+ : : x F Y v C L U U W U U U ! ! ! ! ! ! ! ! ! ! U U U W U U L C n k p ; : : + ",
"+ : : x F Y v C P W W U ~ ^ / ( ) ) ) ) ) ) ) _ ` ' ] ~ U W W P C n k p ; : : + ",
"+ : : x F Y v C P W W U ] [ { } | | | | | | | |  ...X.] U W W P C v k p ; : : + ",
"+ : : + o.O.+.@.P W W U ' ..#.$.%.%.%.%.%.%.%.&.*.=...' U W W P @.-.;.:.; : : + ",
"+ : : + >.,.<.1.L W W ! `  .2.#.3.{ { { { { { 3.4.*. .` ! W W L 1.<.5.6.; : : + ",
"+ : ; t 7.8.9.0.q.W W ! _ w.e.r.t.y.y.y.y.y.y.t.3.&.| _ ! W W q.0.u.i.p.+ ; : + ",
"+ ; a.5 s.d.f.g.P W W ! ) | h...y.j.j.j.j.j.j.y.{ %.| ) ! W W P g.k.l.z.x.a.; + ",
"+ ; c.* & v.% b.U W W ! ) | h...y.j.j.j.j.j.j.y.{ %.| ) ! W W U b.H n.& * c.; + ",
"+ ; m.& & & M.D U W W ! ) | h...y.j.j.j.j.j.j.y.{ %.| ) ! W W U D M.& & & m.; + ",
"+ ; m.& & & M.D U W W ! ) | h...y.j.j.j.j.j.j.y.{ %.| ) ! W W U D M.& & & m.; + ",
"+ ; c.* & % N.S U W W ! ) | h...y.j.j.j.j.j.j.y.{ %.| ) ! W W U S N.% & * c.; + ",
"+ ; a.x.B.V.C.A I W W ! ) | h...y.j.j.j.j.j.j.y.{ %.| ) ! W W I A Z.A.S.x.a.; + ",
"+ : ; + D.u F.Z P W W ! ) | h...y.y.y.y.y.y.y.y.{ %.| ) ! W W P Z e G.H.+ ; : + ",
"+ : : x F Y v C P W W ! ) | h...y.J.K.K.K.K.J.y.{ %.| ) ! W W P C n k p ; : : + ",
"+ : : x F Y v C P W W ! ) | h...L.P.I.U.U.I.P.Y.{ %.| ) ! W W P C n k p ; : : + ",
"+ : : x F T.R.E.P W W ! ) | h...W.Q.!.~.~.!.Q.^.{ %.| ) ! W W P E.v /.p ; : : + ",
"+ : : + (.)._.`.P W W ! ) | h...W.Q.'.].].'.Q.^.{ %.| ) ! W W P `.[.{.}.; : : + ",
"+ : ; + |. X.X0.q.W W ! ) | h...W.XXv ~.~.v XX^.{ %.| ) ! W W q.0.9.i.oX+ ; : + ",
"+ OXo - +X@X#X$XP W W ! ) | h...L.%X&X*X*X&X%XY.{ %.| ) ! W W P $X=X-X;X:Xo OX+ ",
"+ ; 0 >X,X<X1X2X3XW W ! ) | h...[ 4X5X5X5X5X4Xy.{ %.| ) ! W W 3X2X6X7X8X>X0 ; + ",
"+ ; m.* & % N.S U W W ! ) | h...X.9XP P P P 9X[ { %.| ) ! W W U S N.% & * m.; + ",
"+ ; m.& & & M.D U W W ! ) | h...y.0X9X] ] 9X0Xy.{ %.| ) ! W W U D M.& & & m.; + ",
"+ ; m.< & % & S U W W ! ) | h...y.j.j.j.j.j.j.y.{ %.| ) ! W W U S & % & < m.; + ",
"+ ; x., $ qXwXeXU W W ! ) | h...y.j.j.j.j.j.j.y.{ %.| ) ! W W U eXwXrXtX, x.; + ",
"+ ; yXuXiX/.pXaXI W W ! ) | h...y.j.j.j.j.j.j.y.{ %.| ) ! W W I aXpXsXdXuXyX; + ",
"+ : ; + F Y F.C P W W ! ) | h.r.fXt.t.t.t.t.t.fXgX%.| ) ! W W P C F.G.p + ; : + ",
"+ : : x F Y v C P W W ! ) | hXjXkXkXkXkXkXkXkXkXlXzX| ) ! W W P C n k p ; : : + ",
"+ : : xXF Y b C I W W ! ) | cXvXvXvXvXvXvXvXvXvXcXcX| ) ! W W I C F.k p ; : : + ",
"bX+ + bXd y nXmXMXP P NXBXzXVXVXVXVXVXVXVXVXVXVXVXVXzXBXNXP P MXmXCXZXAXSX+ + bX"
};
