/* XPM */
static char *bca74c8cb1d74994e6a88c63e8ec6786C4l3nQjXOFay9fAW[] = {
/* columns rows colors chars-per-pixel */
"40 40 150 2 ",
"   c None",
".  c #3D242F",
"X  c #3E2531",
"o  c #402732",
"O  c #422832",
"+  c #4A2A32",
"@  c #432F3C",
"#  c #582F33",
"$  c #42303E",
"%  c #4B333D",
"&  c #563133",
"*  c #5E3233",
"=  c #573738",
"-  c #5A3C3C",
";  c #613334",
":  c #743A35",
">  c #783C36",
",  c #7D473C",
"<  c #74423A",
"1  c #1D2541",
"2  c #292C44",
"3  c #252A43",
"4  c #2F3045",
"5  c #323347",
"6  c #3B3A4A",
"7  c #433342",
"8  c #4B3541",
"9  c #453A4B",
"0  c #4C3D4C",
"q  c #5C3F41",
"w  c #45414D",
"e  c #54424E",
"r  c #484357",
"t  c #4A4A5F",
"y  c #574551",
"u  c #544857",
"i  c #644646",
"p  c #614D4E",
"a  c #724B41",
"s  c #69534F",
"d  c #7C5244",
"f  c #625655",
"g  c #66525B",
"h  c #6C5450",
"j  c #715B54",
"k  c #73625B",
"l  c #4A4A60",
"z  c #535166",
"x  c #53546A",
"c  c #4F5B76",
"v  c #515C77",
"b  c #525F7B",
"n  c #52607C",
"m  c #69687B",
"M  c #84453A",
"N  c #81493D",
"B  c #884E3F",
"V  c #8F5240",
"C  c #8B5D4A",
"Z  c #925E51",
"A  c #AB5E44",
"S  c #97674F",
"D  c #8F6359",
"F  c #886E5D",
"G  c #95675D",
"H  c #9D6859",
"J  c #9C6B52",
"K  c #987159",
"L  c #AE6145",
"P  c #B66647",
"I  c #B86645",
"U  c #BF6A46",
"Y  c #BD6B4A",
"T  c #B76E4D",
"R  c #A07054",
"E  c #AB7353",
"W  c #A8775A",
"Q  c #A67B5C",
"!  c #B67E5A",
"~  c #A87668",
"^  c #AF7A6A",
"/  c #B17C6A",
"(  c #C06B47",
")  c #C16D4A",
"_  c #C2734E",
"`  c #C97B54",
"'  c #A9805F",
"]  c #BF855F",
"[  c #AF8262",
"{  c #B9956F",
"}  c #B98472",
"|  c #BF8976",
" . c #BF9971",
".. c #CF865A",
"X. c #C8895E",
"o. c #D18E5F",
"O. c #C28E65",
"+. c #D38F60",
"@. c #C39066",
"#. c #D69162",
"$. c #D89363",
"%. c #DB9C69",
"&. c #DC9967",
"*. c #E29A64",
"=. c #E09F6B",
"-. c #CFA576",
";. c #D3A877",
":. c #DFA872",
">. c #D6AA78",
",. c #D8AC78",
"<. c #E4A16B",
"1. c #E8A76E",
"2. c #EBA96F",
"3. c #E5A771",
"4. c #EAAC73",
"5. c #E6A971",
"6. c #E4B37A",
"7. c #EDB57A",
"8. c #F3BD7E",
"9. c #F1B679",
"0. c #596782",
"q. c #5E6C87",
"w. c #5F6D88",
"e. c #6F6F81",
"r. c #7F7B8B",
"t. c #6C7B95",
"y. c #72819B",
"u. c #7787A0",
"i. c #858292",
"p. c #888392",
"a. c #8E8B9A",
"s. c #9D9DAB",
"d. c #8B9BB4",
"f. c #8EA0B8",
"g. c #95A0B4",
"h. c #9CA4B6",
"j. c #98A4B9",
"k. c #A8ACBC",
"l. c #F2BE80",
"z. c #F7C282",
"x. c #F9C483",
"c. c #ADB3C4",
"v. c #ACB7CA",
"b. c #ADB9CB",
"n. c #B1BCCE",
"m. c #B1BDD0",
"M. c #B5C1D4",
"N. c #B8C2D3",
"B. c #C1CCDD",
"V. c #C3CFE0",
/* pixels */
"                                                                                ",
"                                                                                ",
"                                                                                ",
"                                                                                ",
"                    o o o . . o X o o X X o o X o X X X X                       ",
"                    o . o o o o X X X X X X X X X X o X o O                     ",
"                o X . o . X . . X X . X X X . X X X X X X X X X                 ",
"                o . X X X o o o X o o X X o o X X X o X X X X o                 ",
"            O O X X X X O ; ; N V V V V V V V V N ; # O o o . o O O             ",
"            X X X X X X O : : A ) ) ) ) ) ) ) ) A > : + o . o . X X             ",
"            X X X X O + & M M L Y Y ) Y ) Y Y Y L M M & + + . o X X             ",
"            X X X . * : M P Y Y Y Y Y Y Y Y Y Y Y Y P , : # . o X X             ",
"            X X X X ; > M Y Y ) ) Y Y Y Y ) Y Y Y Y Y M : * . X X X             ",
"            X X X X , A L Y Y &.4.$.Y Y Y Y Y Y ..4.3.T A > X X X o             ",
"            X X X X B ) Y Y Y 3.x.=.Y Y Y Y Y Y ..l.8.` Y , X X X X             ",
"            X X X X B Y _ +.$.7.x.4.$.$.$.$.+.#.%.z.8.&.#.C X X X X             ",
"            X X X X B U ..8.x.l.x.l.l.z.z.z.z.z.x.z.z.z.x.K . X X X             ",
"            X X X X B ` ..8.l.6.>.l.z.z.z.z.z.x.8.,.,.8.x.K . X X X             ",
"            X X X X ' 9.9.l.l.k 5 F z.z.z.z.z.x. .6 w ;.x.K . X X X             ",
"            X X X . ' x.x.x.l.f 1 k z.z.z.z.z.x.{ 3 5 -.x.K X X X X             ",
"            X X X X K 2.4.z.l.f 1 j 1.1.1.1.1.2.[ 2 5 @.4.S . . X X             ",
"            X X X . J *.<.l.l.f 1 g &.*.*.*.*.*.W 3 4 ] *.S X . X X             ",
"            X X X X , E ] 4.4.K y K 4.1.<.1.1.1.O.s s J E a . X X X             ",
"            X X X X X X - $.*.*.*.2.x.z.z.z.z.x.9.&.#.- . X . X X X             ",
"            O X % 8 8 % i X.+.o.o.%.6.6.6.6.6.6.3.o.X.i % 8 8 % X X             ",
"      O X X X 8 s.c.c.c.s.e & * = - - - - - - - - = - s.c.c.c.s.% X X X O       ",
"      X X X X 8 c.V.V.V.k.% X o . . . . . . . . . . $ k.V.V.V.c.8 X X X X       ",
"  O X X X X X 8 c.V.V.V.c.m m y.i.i.p.p.p.p.p.p.r.m m n.V.N.B.c.8 . X X X X O   ",
"  X X X X X X 8 c.N.V.N.M.f.d.M.V.V.V.V.V.V.B.V.M.d.f.M.V.B.B.c.8 . X X X X o   ",
"  X X X X X $ w h.v.M.M.b.d.d.b.B.N.v.v.v.v.M.B.b.d.d.v.M.n.b.h.0 @ O X X X X   ",
"  X X X X 8 n v 0.0.y.d.f.d.d.M.B.h.0.0.0.0.j.B.m.d.d.d.f.y.0.0.v v 9 . X X X   ",
"  X X X . 9 n n b b y.d.d.d.d.b.B.g.n n n n g.B.b.d.d.d.d.t.b n n b 9 . X X X   ",
"  O X X . 9 n n n n x u g ~ ^ } | / H H H H / O.} ^ ~ g u z n n n b 9 X X X X   ",
"  X X X . 9 n n n n 9 . & I ( U U ( ) ) ) ( ( ( ) ) P # . r n n n n 9 . X X o   ",
"  X X X X 7 t t t t 7 X % D G G G Z V V B B S G G G D % . 9 l t t t 7 X X X X   ",
"  X X X X . X X X X X X $ c n n n t X . O o t b b b c @ X . X X X X X X X X X   ",
"  O X X X X X X X X X . $ 0.e.q.q.z . X X . z q.q.q.0.7 o o . X X . X X X o o   ",
"      O X X X X X X X X e c.m.m.M.i.. X X . i.M.n.m.c.y . o X o X X X X X       ",
"      X X X X X X X X X y N.N.V.V.a.X X . X a.V.B.B.m.y . . X X X X X X X       ",
"                                                                                "
};
