/* XPM */
static char *dfbabe90042d47889ae39ba050fcf314VwmQngSiXBkv2hLK[] = {
/* columns rows colors chars-per-pixel */
"40 40 150 2 ",
"   c None",
".  c #3D242F",
"X  c #3E2531",
"o  c #402732",
"O  c #422832",
"+  c #4A2A32",
"@  c #432F3C",
"#  c #582F33",
"$  c #42303E",
"%  c #4B333D",
"&  c #563133",
"*  c #5E3233",
"=  c #573738",
"-  c #5A3C3C",
";  c #613334",
":  c #743A35",
">  c #783C36",
",  c #7D473C",
"<  c #74423A",
"1  c #1D2541",
"2  c #292C44",
"3  c #252A43",
"4  c #2F3045",
"5  c #323347",
"6  c #3B3A4A",
"7  c #433342",
"8  c #4B3541",
"9  c #453A4B",
"0  c #4C3D4C",
"q  c #5C3F41",
"w  c #45414D",
"e  c #54424E",
"r  c #484357",
"t  c #4A4A5F",
"y  c #574551",
"u  c #544857",
"i  c #644646",
"p  c #614D4E",
"a  c #724B41",
"s  c #69534F",
"d  c #7C5244",
"f  c #625655",
"g  c #66525B",
"h  c #6C5450",
"j  c #715B54",
"k  c #73625B",
"l  c #4A4A60",
"z  c #535166",
"x  c #53546A",
"c  c #4F5B76",
"v  c #515C77",
"b  c #525F7B",
"n  c #52607C",
"m  c #69687B",
"M  c #84453A",
"N  c #81493D",
"B  c #884E3F",
"V  c #8F5240",
"C  c #8B5D4A",
"Z  c #925E51",
"A  c #AB5E44",
"S  c #97674F",
"D  c #8F6359",
"F  c #886E5D",
"G  c #95675D",
"H  c #9D6859",
"J  c #9C6B52",
"K  c #987159",
"L  c #AE6145",
"P  c #B66647",
"I  c #B86645",
"U  c #BF6A46",
"Y  c #BD6B4A",
"T  c #B76E4D",
"R  c #A07054",
"E  c #AB7353",
"W  c #A8775A",
"Q  c #A67B5C",
"!  c #B67E5A",
"~  c #A87668",
"^  c #AF7A6A",
"/  c #B17C6A",
"(  c #C06B47",
")  c #C16D4A",
"_  c #C2734E",
"`  c #C97B54",
"'  c #A9805F",
"]  c #BF855F",
"[  c #AF8262",
"{  c #B9956F",
"}  c #B98472",
"|  c #BF8976",
" . c #BF9971",
".. c #CF865A",
"X. c #C8895E",
"o. c #D18E5F",
"O. c #C28E65",
"+. c #D38F60",
"@. c #C39066",
"#. c #D69162",
"$. c #D89363",
"%. c #DB9C69",
"&. c #DC9967",
"*. c #E29A64",
"=. c #E09F6B",
"-. c #CFA576",
";. c #D3A877",
":. c #DFA872",
">. c #D6AA78",
",. c #D8AC78",
"<. c #E4A16B",
"1. c #E8A76E",
"2. c #EBA96F",
"3. c #E5A771",
"4. c #EAAC73",
"5. c #E6A971",
"6. c #E4B37A",
"7. c #EDB57A",
"8. c #F3BD7E",
"9. c #F1B679",
"0. c #596782",
"q. c #5E6C87",
"w. c #5F6D88",
"e. c #6F6F81",
"r. c #7F7B8B",
"t. c #6C7B95",
"y. c #72819B",
"u. c #7787A0",
"i. c #858292",
"p. c #888392",
"a. c #8E8B9A",
"s. c #9D9DAB",
"d. c #8B9BB4",
"f. c #8EA0B8",
"g. c #95A0B4",
"h. c #9CA4B6",
"j. c #98A4B9",
"k. c #A8ACBC",
"l. c #F2BE80",
"z. c #F7C282",
"x. c #F9C483",
"c. c #ADB3C4",
"v. c #ACB7CA",
"b. c #ADB9CB",
"n. c #B1BCCE",
"m. c #B1BDD0",
"M. c #B5C1D4",
"N. c #B8C2D3",
"B. c #C1CCDD",
"V. c #C3CFE0",
/* pixels */
"                                                                                ",
"                                                                                ",
"                                                                                ",
"                                                                                ",
"                      X X o X X o X X X o X X X X o o X o o                     ",
"                    O X o X X X o X o X o X o X X X X X X X                     ",
"                X X o X X X X X X X X X X X X X X X X X X X X o                 ",
"                X X X X X X X X X X X X X X X X o X X o X X X X                 ",
"            O O X X X X O ; ; M V V V V V V V V N ; # O o o . o O O             ",
"            X X X X X X O : > A ) ) ) ) ) ) ) ) A > : + . o o . X X             ",
"            X X X X O + & M M A Y Y Y Y Y Y Y ) L M M & + + . o X X             ",
"            X X X . # : M P Y Y Y ) ) Y Y Y Y Y Y Y P , : # . . X X             ",
"            X X o . * > M Y _ Y Y Y Y Y Y Y Y ) Y Y Y M > ; . X X X             ",
"            X X X X < A T 3.4.` Y Y ) Y Y Y #.6.&.Y Y L L M X X X o             ",
"            X X X . , Y ` l.z...Y Y Y Y Y Y <.x.5.Y Y ) Y B X X X X             ",
"            X X o X C #.&.8.z.%.+.$.#.#.#.#.4.x.7.$.+._ Y B X X X X             ",
"            X X . . K x.z.x.z.z.l.l.x.x.z.z.z.z.z.z.l.` Y V X X X X             ",
"            X X X . K x.z.,.;.l.x.x.x.l.z.z.l.-.,.z.l...` V . X X X             ",
"            X X X . K x.-.w 6  .x.x.x.l.z.z.F 5 k l.z.l.8.Q . X X X             ",
"            X X X . K x.-.5 2 { x.x.l.x.z.z.k 1 f l.z.z.z.~ . X X X             ",
"            X X X X D 4.{ X 2 [ 2.2.1.1.1.1.j 1 f l.z.2.2.R . o X X             ",
"            X X X X C <.{ X 3 Q *.*.*.*.*.*.h 1 f l.z.<.*.J . . X X             ",
"            X X X X < E R s s { 2.2.1.2.=.2.H p F 9.4.] E d . O X X             ",
"            X X X X X X * +.*.9.l.x.l.x.l.x.4.*.*.*.$.- . . . . X X             ",
"            O X % 8 8 % i X.+.5.6.6.6.6.6.6.%.o.o.o.X.i % 8 8 % X X             ",
"      O X X X 8 s.c.c.c.s.e & - - - - - - - - = = = q s.c.k.v.s.% X X X O       ",
"      X X X . 8 v.V.B.V.k.% o o . . . . . . . . . . @ k.V.B.V.c.8 X X X X       ",
"  O X X X X . 8 c.V.N.V.c.m m r.p.p.p.p.i.i.p.p.r.m m n.B.B.B.c.8 . X X X X O   ",
"  o o . X . . % c.V.N.V.M.f.f.M.V.V.V.V.V.V.V.V.M.d.f.M.B.B.B.c.8 . X X X X o   ",
"  o . . X @ $ w h.b.M.M.b.d.d.b.B.N.v.v.b.b.N.B.m.d.d.b.N.n.b.h.0 @ O X X X X   ",
"  X o o o 9 v v n 0.y.d.f.d.d.n.B.h.n q.n 0.j.V.b.d.d.d.j.y.n 0.v v 9 . X X X   ",
"  o . o . 9 n n b c t.d.d.d.d.n.B.g.n n n n g.B.b.d.d.d.d.y.n n n b 9 . X X X   ",
"  X X X . 9 b n n n x u g ~ ^ } | / H H H H / | } ^ ~ g u z n n n n 9 X X X X   ",
"  X X o . 9 n n n n r . & I ( ( U ( ) ) ( ) ( ) U ( I & X 0 n n n n 9 X X X o   ",
"  o X X X 7 t t l l 9 . % D G G G Z V B B B Z G G G D % . 7 l t t t 6 . X X X   ",
"  X . X X . X X X X . . $ c b b b t o X O o u n b b v $ . X X X . . . o X X X   ",
"  o X X X X X X X . o . $ 0.e.q.w.z X X o . z e.q.q.0.7 . o . . o . . X o X o   ",
"      X X o X X o X o . e c.m.m.M.p.. X . o y.M.n.n.c.e . o o o o o o X o       ",
"      X X X X X . X X . u N.N.V.B.a.. X . o a.B.B.B.N.y . X . X . . o X o       ",
"                                                                                "
};
