/* XPM */
static char *a8899af02efc4beed48f56cf82b5c590BgzWVFFUMEWQKCEs[] = {
/* columns rows colors chars-per-pixel */
"40 40 192 2 ",
"   c #5A5E6A",
".  c #484D61",
"X  c #495065",
"o  c #485066",
"O  c #494F64",
"+  c #494F63",
"@  c #4A5064",
"#  c #4D5162",
"$  c #444A5C",
"%  c #74798B",
"&  c #BDC1CB",
"*  c #C8CCD3",
"=  c #C7CBD2",
"-  c #B1B5C2",
";  c #A6AABA",
":  c #C5C9D0",
">  c #8C90A2",
",  c #474C61",
"<  c #3E4459",
"1  c #9399A5",
"2  c #DEE2E8",
"3  c #C9CDD8",
"4  c #C5CAD6",
"5  c #C6CAD6",
"6  c #C3C8D4",
"7  c #C3C7D4",
"8  c #BBBFCB",
"9  c #7B8093",
"0  c #464B5F",
"q  c #959AA6",
"w  c #D9DDE4",
"e  c #A6AABF",
"r  c #9DA2B9",
"t  c #9EA3BA",
"y  c #9EA3B9",
"u  c #A0A5BB",
"i  c #A3A8BD",
"p  c #9FA4BA",
"a  c #858AA0",
"s  c #696E83",
"d  c #A7ABBF",
"f  c #9EA4BA",
"g  c #B4B8C9",
"h  c #D4D8E0",
"j  c #ACB1C3",
"k  c #878CA2",
"l  c #696E84",
"z  c #A7ACBE",
"x  c #B3B7C3",
"c  c #A5A9BC",
"v  c #6A6F84",
"b  c #A7ACBF",
"n  c #9A9EB4",
"m  c #8F94AA",
"M  c #9CA1B7",
"N  c #A1A6BB",
"B  c #3E4559",
"V  c #A6ABBF",
"C  c #ADB2C4",
"Z  c #A1A6BC",
"A  c #A5AABE",
"S  c #BEC3D0",
"D  c #D5D9E0",
"F  c #3F455A",
"G  c #9297A4",
"H  c #D8DCE3",
"J  c #A7ABC0",
"K  c #9EA2B5",
"L  c #9EA3B3",
"P  c #A0A4BA",
"I  c #A2A7BC",
"U  c #464B5C",
"Y  c #797E92",
"T  c #CACED9",
"R  c #A8ACC0",
"E  c #A2A7BB",
"W  c #9CA0B6",
"Q  c #AFB3C3",
"!  c #A9ADC0",
"~  c #43495B",
"^  c #838899",
"/  c #CFD3DD",
"(  c #A7ACC0",
")  c #A8ACBD",
"_  c #A6AABD",
"`  c #A0A4BB",
"'  c #979BB1",
"]  c #9A9FB5",
"[  c #DADDE4",
"{  c #979CB2",
"}  c #9BA0B6",
"|  c #9FA5BB",
" . c #949AA6",
".. c #9FA3BA",
"X. c #A4A9BE",
"o. c #B1B5C6",
"O. c #9FA4BB",
"+. c #A0A4B9",
"@. c #A0A4B6",
"#. c #C2C6D3",
"$. c #BEC2D0",
"%. c #A9ADC1",
"&. c #AEB2C4",
"*. c #A1A5BB",
"=. c #BEC2CD",
"-. c #BABFCB",
";. c #C1C5D2",
":. c #D4D8DF",
">. c #9095AA",
",. c #9297AC",
"<. c #A0A5BA",
"1. c #9FA3B5",
"2. c #9EA2B2",
"3. c #3F4659",
"4. c #40465A",
"5. c #9FA5BA",
"6. c #9FA4B6",
"7. c #404659",
"8. c #A4A9BD",
"9. c #BCC0CE",
"0. c #AEB3C5",
"q. c #D0D4DB",
"w. c #B9BECC",
"e. c #9EA2B8",
"r. c #9195A8",
"t. c #989DB1",
"y. c #9DA2B8",
"u. c #6D7287",
"i. c #484E61",
"p. c #8A8FA4",
"a. c #84899E",
"s. c #4C5165",
"d. c #898EA3",
"f. c #7A7F94",
"g. c #4A5063",
"h. c #414659",
"j. c #ABAFC2",
"k. c #B8BCCB",
"l. c #B7BBCB",
"z. c #A7ACBC",
"x. c #A3A8BB",
"c. c #C7CBD5",
"v. c #C6CAD4",
"b. c #A5AABF",
"n. c #989DB3",
"m. c #BBC0CE",
"M. c #C8CCD7",
"N. c #868BA1",
"B. c #9398AC",
"V. c #A5AABD",
"C. c #B0B4C3",
"Z. c #B5B9C7",
"A. c #878BA2",
"S. c #DADEE5",
"D. c #9DA2B7",
"F. c #969AB0",
"G. c #9599AF",
"H. c #8F94A9",
"J. c #D3D7DF",
"K. c #A1A6BA",
"L. c #43495A",
"P. c #8C91A0",
"I. c #9B9FB0",
"U. c #787C93",
"Y. c #797E94",
"T. c #82869C",
"R. c #878CA1",
"E. c #7B8096",
"W. c #787D93",
"Q. c #757A8F",
"!. c #494F62",
"~. c #4F5260",
"^. c #5D6276",
"/. c #63687D",
"(. c #5A5F74",
"). c #5B6075",
"_. c #5B6074",
"`. c #686D82",
"'. c #71768B",
"]. c #5E6378",
"[. c #5D6277",
"{. c #686D81",
"}. c #4A4F62",
"|. c #8E8778",
" X c #4F525F",
".X c #4B4F5E",
"XX c #4D505F",
"oX c #4C505F",
"OX c #4D515F",
"+X c #4A4E5D",
"@X c #686869",
"#X c white",
/* pixels */
"  . X o o o o o o o o o o o o o o o o o o o o o o o o o o o o o o o O + o o @ # ",
"$ % & * = = = = = = = = = = = = = = = = = = = = = = = = = = = = = * - ; : = > , ",
"< 1 2 3 4 5 5 5 5 5 5 5 5 5 5 5 5 5 5 5 5 5 5 5 5 5 5 5 5 5 5 5 5 5 6 7 5 8 9 0 ",
"< q w e r t t t t t t t t t t t t t t t t t t t t t t t t t t t y u i u p a s . ",
"< q w d f p p p p p p p p p p p p p p p p p p p p p p p p p p u y g h j p k l . ",
"< q w d p u u u u u u u u u u u u u u u u u u u u u u u u u u u p z x c u k v . ",
"< q w b y y p u u u u u u u u u u u u u u u u u u u u u u u u p u n m M N k v . ",
"B q w V d C Z p u u u u u u u u u u u u u u u u u u u u u u u u p u Z u u k v . ",
"< q w A S D V t p u u u u u u u u u u u u u u u u u u u u u u u u p p u u k v . ",
"F G H J K L P i I p u u u u u u u u u u u u u u u u u u u u u u u u u u u k v . ",
"U Y T R E W r Q ! p u u u u u u u u u u u u u u u u u u u u u u u u u u u k v . ",
"~ ^ / ( ) _ ` ' ] u p u u u u u u u u u u u u u u u u u u u u u u u u u u k v . ",
"B q [ ( { } u ` u u u u u u u u | u u u u u u u u u u u u u u u u u u u u k v . ",
"F  .w d p u p u u u u u u u p ..P u u u u u p p p | u u u u u u u u u u u k v . ",
"F  .w d p u u u u u u u u p X.o.u p | u u u P p p P u u u u u u u u u u u k v . ",
"F  .w d p u u u u u u u u O.+.@.P O.u p y p N #.$.P p u u u u u u u u u u k v . ",
"F  .w d p u u u u u u u p u y ] p u p %.&.N *.=.-.p p u u u u u u u u u u k v . ",
"F  .w d p u u u u u u u u p u u u u y ;.:.A y >.,.<.u u u u u u u u u u u k v . ",
"F  .w d p u u u u u u u u u p p u u ` 1.2.P ` u u u u u u u u u u u u u u k v . ",
"F  .w d p u u u u u u u u u u u u u u ] { p u p p P u u u u u u u u u u u k v . ",
"3. .w d p u u u u u u u u u u u u u p u u u p A o.u p u u u u u u u u u u k v . ",
"4. .w d p u u u u u u u u u u u u | u p p 5.O.+.6.P O.u u u u u u u u u u k v . ",
"7. .w d p u u u u u u u u u p y p u | u u p u y ] P u u u u u u u u u u u k v . ",
"7. .w d p u u u u u u u u p 8.9.0.p u u u u p u u u | u u u u u u u u u u k v . ",
"7. .w d p u u u u u u u u p b q.w.y u u u u u p p u u u u u u u u u u u u k v . ",
"7. .w d p u u u u u u u p u e.r.t.u p u u u u u u u u u u u u u u u u u u k v . ",
"7. .w d p u u u u u u u u u p y.y u | u u u u u u u u u u u u u u u u u u k s . ",
"7. .w d p u u u u u u u u p u u u p u u u u u u u u u u u u u u u u u u u k u.i.",
"7. .w d p u u u u u u u u u u | u u u u u u u u u u u u u u u u u u u u u p.a.s.",
"7. .w d p u u u u u u u u u u u u u u u u u u u u u u u u u u u u | u u u d.f.g.",
"7. .w d p u u u u u u u u u u u u u u u u u u u u u u u u u u ..p u | u u k s . ",
"h. .w d ..t y P u u u u u u u u u u u u u u u u u u u u u | p j.A p p p u k v . ",
"h. .w d p k.l.u p u u u u u u u u u u u u u u u u u u u u p p z.x.p u u *.k v . ",
"h. .w d p c.v.u p u u u u u u u u u u u u u u u u u u u p Z b.n.M p m.M.X.N.v . ",
"h. .w b y B.B.P u p p p p p p p p p p p p p p p p p p | p V.C.u u p Z.=.i A.v . ",
"h. .S.( p y y u u u u u u u u u u u u u u u u u u u u u u D.F.u u *.G.H.P k v . ",
"h.q J.K.] } } } } } ] ] } } } } } } } } } } } } } } } } } } } } } } } } W a s . ",
"L.P.I.U.Y.Y.Y.Y.Y.Y.T.R.E.Y.Y.Y.Y.Y.Y.Y.Y.Y.Y.Y.Y.Y.Y.Y.Y.Y.Y.Y.Y.Y.Y.Y.Y.W.Q.!.",
"~.^./.(.).).).).)._.`.'.].).).).).).).).).).).).).).).).).).).).).).).).).[.{.}.",
"|. X.XXXXXoXXXXXXXOX.X+XoXXXXXXXXXXXOXXXXXOXOXOXOXOXXXOXOXOXOXOXOXXXOXOXOXoX+X@X"
};
